<svg width="35" height="35" viewBox="0 0 35 35" fill="none" xmlns="http://www.w3.org/2000/svg">
<path d="M15.8335 18.2035H21.9132V13.8434C21.9132 13.7086 21.8038 13.5996 21.6694 13.5996H18.594V15.4707C18.594 15.7941 18.3315 16.0566 18.0081 16.0566C17.6847 16.0566 17.4222 15.7941 17.4222 15.4707V13.5996H12.5784V15.4707C12.5784 15.7941 12.3163 16.0566 11.9925 16.0566C11.669 16.0566 11.4065 15.7941 11.4065 15.4707V13.5996H8.33154C8.19678 13.5996 8.0874 13.7086 8.0874 13.8434V27.2563C8.0874 27.3906 8.19678 27.5 8.33154 27.5H14.4397C14.4253 27.4195 14.4179 27.3371 14.4179 27.2527V19.6191C14.4179 18.8387 15.053 18.2035 15.8335 18.2035Z" fill="white"/>
<path d="M12.5781 13.5996C12.5781 13.1033 12.5781 9.85379 12.5781 9.33047C12.5781 8.96719 12.8738 8.67188 13.2367 8.67188H16.7633C17.1266 8.67188 17.4219 8.96719 17.4219 9.33047V13.5996H18.5938C18.5938 13.1033 18.5938 9.85379 18.5938 9.33047C18.5938 8.32109 17.7727 7.5 16.7633 7.5H13.2367C12.2273 7.5 11.4062 8.32109 11.4062 9.33047V13.5996H12.5781Z" fill="white"/>
<path d="M26.6684 19.3755H15.8336C15.6992 19.3755 15.5898 19.4849 15.5898 19.6192V27.2528C15.5898 27.3872 15.6992 27.4966 15.8336 27.4966H26.6684C26.8031 27.4966 26.9125 27.3872 26.9125 27.2528V19.6192C26.9125 19.4849 26.8031 19.3755 26.6684 19.3755ZM24.6168 23.3325C24.6168 24.2399 23.9527 24.9954 23.0852 25.1384C22.9879 25.1548 22.8879 25.163 22.7859 25.163H19.716C18.7066 25.163 17.8855 24.3419 17.8855 23.3325V21.486C17.8855 21.1626 18.148 20.9001 18.4715 20.9001C18.7949 20.9001 19.0574 21.1626 19.0574 21.486V23.3325C19.0574 23.6954 19.3527 23.9911 19.716 23.9911H22.7859C22.8938 23.9911 22.9953 23.9653 23.0852 23.9188C23.2984 23.8099 23.4449 23.588 23.4449 23.3325V21.486C23.4449 21.1626 23.707 20.9001 24.0309 20.9001C24.3543 20.9001 24.6168 21.1626 24.6168 21.486V23.3325Z" fill="white"/>
</svg>
