<svg width="16" height="20" viewBox="0 0 16 20" fill="none" xmlns="http://www.w3.org/2000/svg">
<path d="M8 0.50174C3.86462 0.50174 0.5 3.74807 0.5 7.73807C0.5 9.31707 1.01692 10.8174 1.99615 12.0762L7.53769 19.2773C7.55154 19.2947 7.57269 19.3014 7.58808 19.317C7.865 19.6031 8.26462 19.5311 8.46192 19.2773C10.0577 17.2229 12.9827 13.3861 14.1073 11.9389C14.1073 11.9389 14.1077 11.9377 14.1081 11.937L14.115 11.9281C15.0212 10.6998 15.5 9.25102 15.5 7.73807C15.5 3.74807 12.1354 0.50174 8 0.50174ZM8 11.642C5.77346 11.642 3.95385 9.88633 3.95385 7.73807C3.95385 5.58981 5.77346 3.83416 8 3.83416C10.2265 3.83416 12.0462 5.58981 12.0462 7.73807C12.0462 9.88633 10.2265 11.642 8 11.642Z" fill="white"/>
</svg>
